<svg width="117" height="112" viewBox="0 0 117 112" fill="none" xmlns="http://www.w3.org/2000/svg">
<path d="M14.7723 26.376H17.8133V29.4171H14.7723V26.376ZM17.8133 26.376H20.8544V29.4171H17.8133V26.376ZM17.8133 29.4171H20.8544V32.4581H17.8133V29.4171ZM17.8133 32.4581H20.8544V35.4992H17.8133V32.4581ZM17.8133 35.4992H20.8544V38.5402H17.8133V35.4992ZM14.7723 35.4992H17.8133V38.5402H14.7723V35.4992ZM14.7723 32.4581H17.8133V35.4992H14.7723V32.4581ZM14.7723 29.4171H17.8133V32.4581H14.7723V29.4171ZM14.7723 38.5402H17.8133V41.5812H14.7723V38.5402ZM14.7723 41.5812H17.8133V44.6223H14.7723V41.5812ZM14.7723 44.6223H17.8133V47.6633H14.7723V44.6223ZM17.8133 41.5812H20.8544V44.6223H17.8133V41.5812ZM17.8133 38.5402H20.8544V41.5812H17.8133V38.5402ZM17.8133 44.6223H20.8544V47.6633H17.8133V44.6223ZM17.8133 47.6633H20.8544V50.7044H17.8133V47.6633ZM14.7723 50.7044H17.8133V53.7454H14.7723V50.7044ZM14.7723 47.6633H17.8133V50.7044H14.7723V47.6633ZM14.7723 53.7454H17.8133V56.7864H14.7723V53.7454ZM17.8133 53.7454H20.8544V56.7864H17.8133V53.7454ZM17.8133 50.7044H20.8544V53.7454H17.8133V50.7044ZM20.8544 53.7454H23.8954V56.7864H20.8544V53.7454ZM23.8954 53.7454H26.9364V56.7864H23.8954V53.7454ZM26.9364 53.7454H29.9775V56.7864H26.9364V53.7454ZM26.9364 50.7044H29.9775V53.7454H26.9364V50.7044ZM23.8954 50.7044H26.9364V53.7454H23.8954V50.7044ZM20.8544 50.7044H23.8954V53.7454H20.8544V50.7044ZM42.1337 53.7454H45.1748V56.7864H42.1337V53.7454ZM42.1337 50.7044H45.1748V53.7454H42.1337V50.7044ZM42.1337 47.6633H45.1748V50.7044H42.1337V47.6633ZM39.0927 50.7044H42.1337V53.7454H39.0927V50.7044ZM39.0927 47.6633H42.1337V50.7044H39.0927V47.6633ZM39.0927 44.6223H42.1337V47.6633H39.0927V44.6223ZM36.0516 47.6633H39.0927V50.7044H36.0516V47.6633ZM36.0516 44.6223H39.0927V47.6633H36.0516V44.6223ZM45.1748 47.6633H48.2158V50.7044H45.1748V47.6633ZM45.1748 50.7044H48.2158V53.7454H45.1748V50.7044ZM45.1748 44.6223H48.2158V47.6633H45.1748V44.6223ZM48.2158 44.6223H51.2568V47.6633H48.2158V44.6223ZM48.2158 47.6633H51.2568V50.7044H48.2158V47.6633ZM51.2568 44.6223H54.2979V47.6633H51.2568V44.6223ZM33.0106 44.6223H36.0516V47.6633H33.0106V44.6223ZM48.2158 26.376H51.2568V29.4171H48.2158V26.376ZM51.2568 26.376H54.2979V29.4171H51.2568V26.376ZM51.2568 29.4171H54.2979V32.4581H51.2568V29.4171ZM51.2568 32.4581H54.2979V35.4992H51.2568V32.4581ZM51.2568 35.4992H54.2979V38.5402H51.2568V35.4992ZM51.2568 38.5402H54.2979V41.5812H51.2568V38.5402ZM48.2158 38.5402H51.2568V41.5812H48.2158V38.5402ZM48.2158 41.5812H51.2568V44.6223H48.2158V41.5812ZM48.2158 35.4992H51.2568V38.5402H48.2158V35.4992ZM48.2158 32.4581H51.2568V35.4992H48.2158V32.4581ZM48.2158 29.4171H51.2568V32.4581H48.2158V29.4171ZM51.2568 41.5812H54.2979V44.6223H51.2568V41.5812ZM36.0516 41.5812H39.0927V44.6223H36.0516V41.5812ZM33.0106 41.5812H36.0516V44.6223H33.0106V41.5812ZM33.0106 38.5402H36.0516V41.5812H33.0106V38.5402ZM36.0516 38.5402H39.0927V41.5812H36.0516V38.5402ZM36.0516 35.4992H39.0927V38.5402H36.0516V35.4992ZM33.0106 35.4992H36.0516V38.5402H33.0106V35.4992ZM33.0106 32.4581H36.0516V35.4992H33.0106V32.4581ZM36.0516 32.4581H39.0927V35.4992H36.0516V32.4581ZM33.0106 26.376H36.0516V29.4171H33.0106V26.376ZM36.0516 26.376H39.0927V29.4171H36.0516V26.376ZM36.0516 29.4171H39.0927V32.4581H36.0516V29.4171ZM33.0106 29.4171H36.0516V32.4581H33.0106V29.4171ZM57.3468 26.376H60.3879V29.4171H57.3468V26.376ZM60.3879 26.376H63.4289V29.4171H60.3879V26.376ZM60.3879 29.4171H63.4289V32.4581H60.3879V29.4171ZM60.3879 32.4581H63.4289V35.4992H60.3879V32.4581ZM60.3879 35.4992H63.4289V38.5402H60.3879V35.4992ZM57.3468 35.4992H60.3879V38.5402H57.3468V35.4992ZM57.3468 32.4581H60.3879V35.4992H57.3468V32.4581ZM57.3468 29.4171H60.3879V32.4581H57.3468V29.4171ZM57.3468 38.5402H60.3879V41.5812H57.3468V38.5402ZM57.3468 41.5812H60.3879V44.6223H57.3468V41.5812ZM57.3468 44.6223H60.3879V47.6633H57.3468V44.6223ZM60.3879 41.5812H63.4289V44.6223H60.3879V41.5812ZM60.3879 38.5402H63.4289V41.5812H60.3879V38.5402ZM60.3879 44.6223H63.4289V47.6633H60.3879V44.6223ZM60.3879 47.6633H63.4289V50.7044H60.3879V47.6633ZM57.3468 50.7044H60.3879V53.7454H57.3468V50.7044ZM57.3468 47.6633H60.3879V50.7044H57.3468V47.6633ZM57.3468 53.7454H60.3879V56.7864H57.3468V53.7454ZM60.3879 53.7454H63.4289V56.7864H60.3879V53.7454ZM60.3879 50.7044H63.4289V53.7454H60.3879V50.7044ZM63.4289 53.7454H66.47V56.7864H63.4289V53.7454ZM66.47 53.7454H69.511V56.7864H66.47V53.7454ZM69.511 53.7454H72.552V56.7864H69.511V53.7454ZM69.511 50.7044H72.552V53.7454H69.511V50.7044ZM66.47 50.7044H69.511V53.7454H66.47V50.7044ZM63.4289 50.7044H66.47V53.7454H63.4289V50.7044Z" fill="#8CF483"/>
<path d="M50.5692 64.9026H53.6102V67.9436H50.5692V64.9026ZM62.7333 64.9026H65.7744V67.9436H62.7333V64.9026ZM62.7333 67.9436H65.7744V70.9847H62.7333V67.9436ZM65.7744 64.9026H68.8154V67.9436H65.7744V64.9026ZM65.7744 67.9436H68.8154V70.9847H65.7744V67.9436ZM65.7744 70.9847H68.8154V74.0257H65.7744V70.9847ZM65.7744 74.0257H68.8154V77.0668H65.7744V74.0257ZM65.7744 77.0668H68.8154V80.1078H65.7744V77.0668ZM65.7744 80.1078H68.8154V83.1489H65.7744V80.1078ZM65.7744 83.1489H68.8154V86.1899H65.7744V83.1489ZM65.7744 86.1899H68.8154V89.2309H65.7744V86.1899ZM62.7333 86.1899H65.7744V89.2309H62.7333V86.1899ZM62.7333 83.1489H65.7744V86.1899H62.7333V83.1489ZM62.7333 80.1078H65.7744V83.1489H62.7333V80.1078ZM62.7333 77.0668H65.7744V80.1078H62.7333V77.0668ZM62.7333 74.0257H65.7744V77.0668H62.7333V74.0257ZM62.7333 70.9847H65.7744V74.0257H62.7333V70.9847ZM59.6923 83.1489H62.7333V86.1899H59.6923V83.1489ZM59.6923 86.1899H62.7333V89.2309H59.6923V86.1899ZM62.7333 89.2309H65.7744V92.272H62.7333V89.2309ZM59.6923 89.2309H62.7333V92.272H59.6923V89.2309ZM56.6513 89.2309H59.6923V92.272H56.6513V89.2309ZM56.6513 86.1899H59.6923V89.2309H56.6513V86.1899ZM53.6102 89.2309H56.6513V92.272H53.6102V89.2309ZM50.5692 89.2309H53.6102V92.272H50.5692V89.2309ZM50.5692 86.1899H53.6102V89.2309H50.5692V86.1899ZM53.6102 86.1899H56.6513V89.2309H53.6102V86.1899ZM53.6102 83.1489H56.6513V86.1899H53.6102V83.1489ZM50.5692 83.1489H53.6102V86.1899H50.5692V83.1489ZM47.5281 86.1899H50.5692V89.2309H47.5281V86.1899ZM47.5281 83.1489H50.5692V86.1899H47.5281V83.1489ZM47.5281 80.1078H50.5692V83.1489H47.5281V80.1078ZM47.5281 77.0668H50.5692V80.1078H47.5281V77.0668ZM47.5281 74.0257H50.5692V77.0668H47.5281V74.0257ZM47.5281 70.9847H50.5692V74.0257H47.5281V70.9847ZM47.5281 67.9436H50.5692V70.9847H47.5281V67.9436ZM50.5692 67.9436H53.6102V70.9847H50.5692V67.9436ZM47.5281 64.9026H50.5692V67.9436H47.5281V64.9026ZM50.5692 70.9847H53.6102V74.0257H50.5692V70.9847ZM50.5692 74.0257H53.6102V77.0668H50.5692V74.0257ZM50.5692 77.0668H53.6102V80.1078H50.5692V77.0668ZM50.5692 80.1078H53.6102V83.1489H50.5692V80.1078ZM47.5281 61.8616H50.5692V64.9026H47.5281V61.8616ZM50.5692 61.8616H53.6102V64.9026H50.5692V61.8616ZM62.7333 61.8616H65.7744V64.9026H62.7333V61.8616ZM65.7744 61.8616H68.8154V64.9026H65.7744V61.8616ZM71.8644 61.8616H74.9054V64.9026H71.8644V61.8616ZM74.9054 61.8616H77.9465V64.9026H74.9054V61.8616ZM77.9465 61.8616H80.9875V64.9026H77.9465V61.8616ZM80.9875 61.8616H84.0285V64.9026H80.9875V61.8616ZM84.0285 61.8616H87.0696V64.9026H84.0285V61.8616ZM87.0696 61.8616H90.1106V64.9026H87.0696V61.8616ZM87.0696 64.9026H90.1106V67.9436H87.0696V64.9026ZM84.0285 64.9026H87.0696V67.9436H84.0285V64.9026ZM80.9875 64.9026H84.0285V67.9436H80.9875V64.9026ZM77.9465 64.9026H80.9875V67.9436H77.9465V64.9026ZM74.9054 64.9026H77.9465V67.9436H74.9054V64.9026ZM71.8644 64.9026H74.9054V67.9436H71.8644V64.9026ZM90.1106 64.9026H93.1517V67.9436H90.1106V64.9026ZM87.0696 67.9436H90.1106V70.9847H87.0696V67.9436ZM90.1106 67.9436H93.1517V70.9847H90.1106V67.9436ZM90.1106 70.9847H93.1517V74.0257H90.1106V70.9847ZM90.1106 74.0257H93.1517V77.0668H90.1106V74.0257ZM87.0696 74.0257H90.1106V77.0668H87.0696V74.0257ZM87.0696 70.9847H90.1106V74.0257H87.0696V70.9847ZM87.0696 77.0668H90.1106V80.1078H87.0696V77.0668ZM87.0696 80.1078H90.1106V83.1489H87.0696V80.1078ZM84.0285 80.1078H87.0696V83.1489H84.0285V80.1078ZM84.0285 77.0668H87.0696V80.1078H84.0285V77.0668ZM80.9875 77.0668H84.0285V80.1078H80.9875V77.0668ZM80.9875 80.1078H84.0285V83.1489H80.9875V80.1078ZM77.9465 80.1078H80.9875V83.1489H77.9465V80.1078ZM77.9465 77.0668H80.9875V80.1078H77.9465V77.0668ZM74.9054 77.0668H77.9465V80.1078H74.9054V77.0668ZM71.8644 77.0668H74.9054V80.1078H71.8644V77.0668ZM71.8644 80.1078H74.9054V83.1489H71.8644V80.1078ZM74.9054 80.1078H77.9465V83.1489H74.9054V80.1078ZM71.8644 67.9436H74.9054V70.9847H71.8644V67.9436ZM74.9054 67.9436H77.9465V70.9847H74.9054V67.9436ZM74.9054 70.9847H77.9465V74.0257H74.9054V70.9847ZM74.9054 74.0257H77.9465V77.0668H74.9054V74.0257ZM71.8644 70.9847H74.9054V74.0257H71.8644V70.9847ZM71.8644 74.0257H74.9054V77.0668H71.8644V74.0257ZM71.8644 83.1489H74.9054V86.1899H71.8644V83.1489ZM74.9054 83.1489H77.9465V86.1899H74.9054V83.1489ZM74.9054 86.1899H77.9465V89.2309H74.9054V86.1899ZM74.9054 89.2309H77.9465V92.272H74.9054V89.2309ZM71.8644 89.2309H74.9054V92.272H71.8644V89.2309ZM71.8644 86.1899H74.9054V89.2309H71.8644V86.1899ZM90.1106 77.0668H93.1517V80.1078H90.1106V77.0668Z" fill="#8CF483"/>
<mask id="path-4-outside-1_63_2593" maskUnits="userSpaceOnUse" x="51.6297" y="9.88202" width="58" height="65" fill="black">
<rect fill="white" x="51.6297" y="9.88202" width="58" height="65"/>
<path d="M81.8895 18.9474H83.8162V28.2599H85.743V33.0773H87.6697V35.6457H89.9178V37.5724H93.7713V39.5002H99.5526V41.4269H107.581V43.3537H99.5526V45.2805H93.7713V47.2072H89.9178V49.134H87.6697V51.7033H85.743V56.5197H83.8162V65.8332H81.8895V72.8976H79.6414V65.8332H77.7147V56.5197H75.7879V51.7033H73.8611V49.134H71.2918V47.2072H67.4383V45.2805H61.658V43.3537H53.6297V41.4269H61.658V39.5002H67.4383V37.5724H71.2918V35.6457H73.8611V33.0773H75.7879V28.2599H77.7147V18.9474H79.6414V11.882H81.8895V18.9474Z"/>
</mask>
<path d="M81.8895 18.9474H83.8162V28.2599H85.743V33.0773H87.6697V35.6457H89.9178V37.5724H93.7713V39.5002H99.5526V41.4269H107.581V43.3537H99.5526V45.2805H93.7713V47.2072H89.9178V49.134H87.6697V51.7033H85.743V56.5197H83.8162V65.8332H81.8895V72.8976H79.6414V65.8332H77.7147V56.5197H75.7879V51.7033H73.8611V49.134H71.2918V47.2072H67.4383V45.2805H61.658V43.3537H53.6297V41.4269H61.658V39.5002H67.4383V37.5724H71.2918V35.6457H73.8611V33.0773H75.7879V28.2599H77.7147V18.9474H79.6414V11.882H81.8895V18.9474Z" fill="#8CF483"/>
<path d="M81.8895 18.9474H80.2838V20.5531H81.8895V18.9474ZM83.8162 18.9474H85.4219V17.3418H83.8162V18.9474ZM83.8162 28.2599H82.2105V29.8656H83.8162V28.2599ZM85.743 28.2599H87.3487V26.6543H85.743V28.2599ZM85.743 33.0773H84.1373V34.683H85.743V33.0773ZM87.6697 33.0773H89.2754V31.4717H87.6697V33.0773ZM87.6697 35.6457H86.0641V37.2514H87.6697V35.6457ZM89.9178 35.6457H91.5235V34.04H89.9178V35.6457ZM89.9178 37.5724H88.3121V39.1781H89.9178V37.5724ZM93.7713 37.5724H95.377V35.9668H93.7713V37.5724ZM93.7713 39.5002H92.1656V41.1059H93.7713V39.5002ZM99.5526 39.5002H101.158V37.8945H99.5526V39.5002ZM99.5526 41.4269H97.9469V43.0326H99.5526V41.4269ZM107.581 41.4269H109.187V39.8213H107.581V41.4269ZM107.581 43.3537V44.9594H109.187V43.3537H107.581ZM99.5526 43.3537V41.748H97.9469V43.3537H99.5526ZM99.5526 45.2805V46.8861H101.158V45.2805H99.5526ZM93.7713 45.2805V43.6748H92.1656V45.2805H93.7713ZM93.7713 47.2072V48.8129H95.377V47.2072H93.7713ZM89.9178 47.2072V45.6015H88.3121V47.2072H89.9178ZM89.9178 49.134V50.7397H91.5235V49.134H89.9178ZM87.6697 49.134V47.5283H86.0641V49.134H87.6697ZM87.6697 51.7033V53.309H89.2754V51.7033H87.6697ZM85.743 51.7033V50.0976H84.1373V51.7033H85.743ZM85.743 56.5197V58.1254H87.3487V56.5197H85.743ZM83.8162 56.5197V54.914H82.2105V56.5197H83.8162ZM83.8162 65.8332V67.4389H85.4219V65.8332H83.8162ZM81.8895 65.8332V64.2275H80.2838V65.8332H81.8895ZM81.8895 72.8976V74.5033H83.4951V72.8976H81.8895ZM79.6414 72.8976H78.0357V74.5033H79.6414V72.8976ZM79.6414 65.8332H81.2471V64.2275H79.6414V65.8332ZM77.7147 65.8332H76.109V67.4389H77.7147V65.8332ZM77.7147 56.5197H79.3203V54.914H77.7147V56.5197ZM75.7879 56.5197H74.1822V58.1254H75.7879V56.5197ZM75.7879 51.7033H77.3936V50.0976H75.7879V51.7033ZM73.8611 51.7033H72.2555V53.309H73.8611V51.7033ZM73.8611 49.134H75.4668V47.5283H73.8611V49.134ZM71.2918 49.134H69.6861V50.7397H71.2918V49.134ZM71.2918 47.2072H72.8975V45.6015H71.2918V47.2072ZM67.4383 47.2072H65.8326V48.8129H67.4383V47.2072ZM67.4383 45.2805H69.044V43.6748H67.4383V45.2805ZM61.658 45.2805H60.0523V46.8861H61.658V45.2805ZM61.658 43.3537H63.2637V41.748H61.658V43.3537ZM53.6297 43.3537H52.024V44.9594H53.6297V43.3537ZM53.6297 41.4269V39.8213H52.024V41.4269H53.6297ZM61.658 41.4269V43.0326H63.2637V41.4269H61.658ZM61.658 39.5002V37.8945H60.0523V39.5002H61.658ZM67.4383 39.5002V41.1059H69.044V39.5002H67.4383ZM67.4383 37.5724V35.9668H65.8326V37.5724H67.4383ZM71.2918 37.5724V39.1781H72.8975V37.5724H71.2918ZM71.2918 35.6457V34.04H69.6861V35.6457H71.2918ZM73.8611 35.6457V37.2514H75.4668V35.6457H73.8611ZM73.8611 33.0773V31.4717H72.2555V33.0773H73.8611ZM75.7879 33.0773V34.683H77.3936V33.0773H75.7879ZM75.7879 28.2599V26.6543H74.1822V28.2599H75.7879ZM77.7147 28.2599V29.8656H79.3203V28.2599H77.7147ZM77.7147 18.9474V17.3418H76.109V18.9474H77.7147ZM79.6414 18.9474V20.5531H81.2471V18.9474H79.6414ZM79.6414 11.882V10.2763H78.0357V11.882H79.6414ZM81.8895 11.882H83.4951V10.2763H81.8895V11.882ZM81.8895 18.9474V20.5531H83.8162V18.9474V17.3418H81.8895V18.9474ZM83.8162 18.9474H82.2105V28.2599H83.8162H85.4219V18.9474H83.8162ZM83.8162 28.2599V29.8656H85.743V28.2599V26.6543H83.8162V28.2599ZM85.743 28.2599H84.1373V33.0773H85.743H87.3487V28.2599H85.743ZM85.743 33.0773V34.683H87.6697V33.0773V31.4717H85.743V33.0773ZM87.6697 33.0773H86.0641V35.6457H87.6697H89.2754V33.0773H87.6697ZM87.6697 35.6457V37.2514H89.9178V35.6457V34.04H87.6697V35.6457ZM89.9178 35.6457H88.3121V37.5724H89.9178H91.5235V35.6457H89.9178ZM89.9178 37.5724V39.1781H93.7713V37.5724V35.9668H89.9178V37.5724ZM93.7713 37.5724H92.1656V39.5002H93.7713H95.377V37.5724H93.7713ZM93.7713 39.5002V41.1059H99.5526V39.5002V37.8945H93.7713V39.5002ZM99.5526 39.5002H97.9469V41.4269H99.5526H101.158V39.5002H99.5526ZM99.5526 41.4269V43.0326H107.581V41.4269V39.8213H99.5526V41.4269ZM107.581 41.4269H105.975V43.3537H107.581H109.187V41.4269H107.581ZM107.581 43.3537V41.748H99.5526V43.3537V44.9594H107.581V43.3537ZM99.5526 43.3537H97.9469V45.2805H99.5526H101.158V43.3537H99.5526ZM99.5526 45.2805V43.6748H93.7713V45.2805V46.8861H99.5526V45.2805ZM93.7713 45.2805H92.1656V47.2072H93.7713H95.377V45.2805H93.7713ZM93.7713 47.2072V45.6015H89.9178V47.2072V48.8129H93.7713V47.2072ZM89.9178 47.2072H88.3121V49.134H89.9178H91.5235V47.2072H89.9178ZM89.9178 49.134V47.5283H87.6697V49.134V50.7397H89.9178V49.134ZM87.6697 49.134H86.0641V51.7033H87.6697H89.2754V49.134H87.6697ZM87.6697 51.7033V50.0976H85.743V51.7033V53.309H87.6697V51.7033ZM85.743 51.7033H84.1373V56.5197H85.743H87.3487V51.7033H85.743ZM85.743 56.5197V54.914H83.8162V56.5197V58.1254H85.743V56.5197ZM83.8162 56.5197H82.2105V65.8332H83.8162H85.4219V56.5197H83.8162ZM83.8162 65.8332V64.2275H81.8895V65.8332V67.4389H83.8162V65.8332ZM81.8895 65.8332H80.2838V72.8976H81.8895H83.4951V65.8332H81.8895ZM81.8895 72.8976V71.292H79.6414V72.8976V74.5033H81.8895V72.8976ZM79.6414 72.8976H81.2471V65.8332H79.6414H78.0357V72.8976H79.6414ZM79.6414 65.8332V64.2275H77.7147V65.8332V67.4389H79.6414V65.8332ZM77.7147 65.8332H79.3203V56.5197H77.7147H76.109V65.8332H77.7147ZM77.7147 56.5197V54.914H75.7879V56.5197V58.1254H77.7147V56.5197ZM75.7879 56.5197H77.3936V51.7033H75.7879H74.1822V56.5197H75.7879ZM75.7879 51.7033V50.0976H73.8611V51.7033V53.309H75.7879V51.7033ZM73.8611 51.7033H75.4668V49.134H73.8611H72.2555V51.7033H73.8611ZM73.8611 49.134V47.5283H71.2918V49.134V50.7397H73.8611V49.134ZM71.2918 49.134H72.8975V47.2072H71.2918H69.6861V49.134H71.2918ZM71.2918 47.2072V45.6015H67.4383V47.2072V48.8129H71.2918V47.2072ZM67.4383 47.2072H69.044V45.2805H67.4383H65.8326V47.2072H67.4383ZM67.4383 45.2805V43.6748H61.658V45.2805V46.8861H67.4383V45.2805ZM61.658 45.2805H63.2637V43.3537H61.658H60.0523V45.2805H61.658ZM61.658 43.3537V41.748H53.6297V43.3537V44.9594H61.658V43.3537ZM53.6297 43.3537H55.2354V41.4269H53.6297H52.024V43.3537H53.6297ZM53.6297 41.4269V43.0326H61.658V41.4269V39.8213H53.6297V41.4269ZM61.658 41.4269H63.2637V39.5002H61.658H60.0523V41.4269H61.658ZM61.658 39.5002V41.1059H67.4383V39.5002V37.8945H61.658V39.5002ZM67.4383 39.5002H69.044V37.5724H67.4383H65.8326V39.5002H67.4383ZM67.4383 37.5724V39.1781H71.2918V37.5724V35.9668H67.4383V37.5724ZM71.2918 37.5724H72.8975V35.6457H71.2918H69.6861V37.5724H71.2918ZM71.2918 35.6457V37.2514H73.8611V35.6457V34.04H71.2918V35.6457ZM73.8611 35.6457H75.4668V33.0773H73.8611H72.2555V35.6457H73.8611ZM73.8611 33.0773V34.683H75.7879V33.0773V31.4717H73.8611V33.0773ZM75.7879 33.0773H77.3936V28.2599H75.7879H74.1822V33.0773H75.7879ZM75.7879 28.2599V29.8656H77.7147V28.2599V26.6543H75.7879V28.2599ZM77.7147 28.2599H79.3203V18.9474H77.7147H76.109V28.2599H77.7147ZM77.7147 18.9474V20.5531H79.6414V18.9474V17.3418H77.7147V18.9474ZM79.6414 18.9474H81.2471V11.882H79.6414H78.0357V18.9474H79.6414ZM79.6414 11.882V13.4877H81.8895V11.882V10.2763H79.6414V11.882ZM81.8895 11.882H80.2838V18.9474H81.8895H83.4951V11.882H81.8895Z" fill="black" mask="url(#path-4-outside-1_63_2593)"/>
</svg>
