<svg width="245" height="235" viewBox="0 0 245 235" fill="none" xmlns="http://www.w3.org/2000/svg">
<path d="M30.9526 54.6627H37.3245V61.0346H30.9526V54.6627ZM37.3245 54.6627H43.6965V61.0346H37.3245V54.6627ZM37.3245 61.0346H43.6965V67.4066H37.3245V61.0346ZM37.3245 67.4066H43.6965V73.7785H37.3245V67.4066ZM37.3245 73.7785H43.6965V80.1504H37.3245V73.7785ZM30.9526 73.7785H37.3245V80.1504H30.9526V73.7785ZM30.9526 67.4066H37.3245V73.7785H30.9526V67.4066ZM30.9526 61.0346H37.3245V67.4066H30.9526V61.0346ZM30.9526 80.1504H37.3245V86.5224H30.9526V80.1504ZM30.9526 86.5224H37.3245V92.8943H30.9526V86.5224ZM30.9526 92.8943H37.3245V99.2663H30.9526V92.8943ZM37.3245 86.5224H43.6965V92.8943H37.3245V86.5224ZM37.3245 80.1504H43.6965V86.5224H37.3245V80.1504ZM37.3245 92.8943H43.6965V99.2663H37.3245V92.8943ZM37.3245 99.2663H43.6965V105.638H37.3245V99.2663ZM30.9526 105.638H37.3245V112.01H30.9526V105.638ZM30.9526 99.2663H37.3245V105.638H30.9526V99.2663ZM30.9526 112.01H37.3245V118.382H30.9526V112.01ZM37.3245 112.01H43.6965V118.382H37.3245V112.01ZM37.3245 105.638H43.6965V112.01H37.3245V105.638ZM43.6965 112.01H50.0684V118.382H43.6965V112.01ZM50.0684 112.01H56.4403V118.382H50.0684V112.01ZM56.4403 112.01H62.8123V118.382H56.4403V112.01ZM56.4403 105.638H62.8123V112.01H56.4403V105.638ZM50.0684 105.638H56.4403V112.01H50.0684V105.638ZM43.6965 105.638H50.0684V112.01H43.6965V105.638ZM88.2834 112.01H94.6554V118.382H88.2834V112.01ZM88.2834 105.638H94.6554V112.01H88.2834V105.638ZM88.2834 99.2663H94.6554V105.638H88.2834V99.2663ZM81.9115 105.638H88.2834V112.01H81.9115V105.638ZM81.9115 99.2663H88.2834V105.638H81.9115V99.2663ZM81.9115 92.8943H88.2834V99.2663H81.9115V92.8943ZM75.5396 99.2663H81.9115V105.638H75.5396V99.2663ZM75.5396 92.8943H81.9115V99.2663H75.5396V92.8943ZM94.6554 99.2663H101.027V105.638H94.6554V99.2663ZM94.6554 105.638H101.027V112.01H94.6554V105.638ZM94.6554 92.8943H101.027V99.2663H94.6554V92.8943ZM101.027 92.8943H107.399V99.2663H101.027V92.8943ZM101.027 99.2663H107.399V105.638H101.027V99.2663ZM107.399 92.8943H113.771V99.2663H107.399V92.8943ZM69.1676 92.8943H75.5396V99.2663H69.1676V92.8943ZM101.027 54.6627H107.399V61.0346H101.027V54.6627ZM107.399 54.6627H113.771V61.0346H107.399V54.6627ZM107.399 61.0346H113.771V67.4066H107.399V61.0346ZM107.399 67.4066H113.771V73.7785H107.399V67.4066ZM107.399 73.7785H113.771V80.1504H107.399V73.7785ZM107.399 80.1504H113.771V86.5224H107.399V80.1504ZM101.027 80.1504H107.399V86.5224H101.027V80.1504ZM101.027 86.5224H107.399V92.8943H101.027V86.5224ZM101.027 73.7785H107.399V80.1504H101.027V73.7785ZM101.027 67.4066H107.399V73.7785H101.027V67.4066ZM101.027 61.0346H107.399V67.4066H101.027V61.0346ZM107.399 86.5224H113.771V92.8943H107.399V86.5224ZM75.5396 86.5224H81.9115V92.8943H75.5396V86.5224ZM69.1676 86.5224H75.5396V92.8943H69.1676V86.5224ZM69.1676 80.1504H75.5396V86.5224H69.1676V80.1504ZM75.5396 80.1504H81.9115V86.5224H75.5396V80.1504ZM75.5396 73.7785H81.9115V80.1504H75.5396V73.7785ZM69.1676 73.7785H75.5396V80.1504H69.1676V73.7785ZM69.1676 67.4066H75.5396V73.7785H69.1676V67.4066ZM75.5396 67.4066H81.9115V73.7785H75.5396V67.4066ZM69.1676 54.6627H75.5396V61.0346H69.1676V54.6627ZM75.5396 54.6627H81.9115V61.0346H75.5396V54.6627ZM75.5396 61.0346H81.9115V67.4066H75.5396V61.0346ZM69.1676 61.0346H75.5396V67.4066H69.1676V61.0346ZM120.16 54.6627H126.532V61.0346H120.16V54.6627ZM126.532 54.6627H132.904V61.0346H126.532V54.6627ZM126.532 61.0346H132.904V67.4066H126.532V61.0346ZM126.532 67.4066H132.904V73.7785H126.532V67.4066ZM126.532 73.7785H132.904V80.1504H126.532V73.7785ZM120.16 73.7785H126.532V80.1504H120.16V73.7785ZM120.16 67.4066H126.532V73.7785H120.16V67.4066ZM120.16 61.0346H126.532V67.4066H120.16V61.0346ZM120.16 80.1504H126.532V86.5224H120.16V80.1504ZM120.16 86.5224H126.532V92.8943H120.16V86.5224ZM120.16 92.8943H126.532V99.2663H120.16V92.8943ZM126.532 86.5224H132.904V92.8943H126.532V86.5224ZM126.532 80.1504H132.904V86.5224H126.532V80.1504ZM126.532 92.8943H132.904V99.2663H126.532V92.8943ZM126.532 99.2663H132.904V105.638H126.532V99.2663ZM120.16 105.638H126.532V112.01H120.16V105.638ZM120.16 99.2663H126.532V105.638H120.16V99.2663ZM120.16 112.01H126.532V118.382H120.16V112.01ZM126.532 112.01H132.904V118.382H126.532V112.01ZM126.532 105.638H132.904V112.01H126.532V105.638ZM132.904 112.01H139.276V118.382H132.904V112.01ZM139.276 112.01H145.647V118.382H139.276V112.01ZM145.647 112.01H152.019V118.382H145.647V112.01ZM145.647 105.638H152.019V112.01H145.647V105.638ZM139.276 105.638H145.647V112.01H139.276V105.638ZM132.904 105.638H139.276V112.01H132.904V105.638Z" fill="#8CF483"/>
<path d="M105.958 135.387H112.33V141.759H105.958V135.387ZM131.446 135.387H137.818V141.759H131.446V135.387ZM131.446 141.759H137.818V148.131H131.446V141.759ZM137.818 135.387H144.19V141.759H137.818V135.387ZM137.818 141.759H144.19V148.131H137.818V141.759ZM137.818 148.131H144.19V154.503H137.818V148.131ZM137.818 154.503H144.19V160.875H137.818V154.503ZM137.818 160.875H144.19V167.247H137.818V160.875ZM137.818 167.247H144.19V173.619H137.818V167.247ZM137.818 173.619H144.19V179.991H137.818V173.619ZM137.818 179.991H144.19V186.363H137.818V179.991ZM131.446 179.991H137.818V186.363H131.446V179.991ZM131.446 173.619H137.818V179.991H131.446V173.619ZM131.446 167.247H137.818V173.619H131.446V167.247ZM131.446 160.875H137.818V167.247H131.446V160.875ZM131.446 154.503H137.818V160.875H131.446V154.503ZM131.446 148.131H137.818V154.503H131.446V148.131ZM125.074 173.619H131.446V179.991H125.074V173.619ZM125.074 179.991H131.446V186.363H125.074V179.991ZM131.446 186.363H137.818V192.735H131.446V186.363ZM125.074 186.363H131.446V192.735H125.074V186.363ZM118.702 186.363H125.074V192.735H118.702V186.363ZM118.702 179.991H125.074V186.363H118.702V179.991ZM112.33 186.363H118.702V192.735H112.33V186.363ZM105.958 186.363H112.33V192.735H105.958V186.363ZM105.958 179.991H112.33V186.363H105.958V179.991ZM112.33 179.991H118.702V186.363H112.33V179.991ZM112.33 173.619H118.702V179.991H112.33V173.619ZM105.958 173.619H112.33V179.991H105.958V173.619ZM99.5864 179.991H105.958V186.363H99.5864V179.991ZM99.5864 173.619H105.958V179.991H99.5864V173.619ZM99.5864 167.247H105.958V173.619H99.5864V167.247ZM99.5864 160.875H105.958V167.247H99.5864V160.875ZM99.5864 154.503H105.958V160.875H99.5864V154.503ZM99.5864 148.131H105.958V154.503H99.5864V148.131ZM99.5864 141.759H105.958V148.131H99.5864V141.759ZM105.958 141.759H112.33V148.131H105.958V141.759ZM99.5864 135.387H105.958V141.759H99.5864V135.387ZM105.958 148.131H112.33V154.503H105.958V148.131ZM105.958 154.503H112.33V160.875H105.958V154.503ZM105.958 160.875H112.33V167.247H105.958V160.875ZM105.958 167.247H112.33V173.619H105.958V167.247ZM99.5864 129.015H105.958V135.387H99.5864V129.015ZM105.958 129.015H112.33V135.387H105.958V129.015ZM131.446 129.015H137.818V135.387H131.446V129.015ZM137.818 129.015H144.19V135.387H137.818V129.015ZM150.579 129.015H156.95V135.387H150.579V129.015ZM156.95 129.015H163.322V135.387H156.95V129.015ZM163.322 129.015H169.694V135.387H163.322V129.015ZM169.694 129.015H176.066V135.387H169.694V129.015ZM176.066 129.015H182.438V135.387H176.066V129.015ZM182.438 129.015H188.81V135.387H182.438V129.015ZM182.438 135.387H188.81V141.759H182.438V135.387ZM176.066 135.387H182.438V141.759H176.066V135.387ZM169.694 135.387H176.066V141.759H169.694V135.387ZM163.322 135.387H169.694V141.759H163.322V135.387ZM156.95 135.387H163.322V141.759H156.95V135.387ZM150.579 135.387H156.95V141.759H150.579V135.387ZM188.81 135.387H195.182V141.759H188.81V135.387ZM182.438 141.759H188.81V148.131H182.438V141.759ZM188.81 141.759H195.182V148.131H188.81V141.759ZM188.81 148.131H195.182V154.503H188.81V148.131ZM188.81 154.503H195.182V160.875H188.81V154.503ZM182.438 154.503H188.81V160.875H182.438V154.503ZM182.438 148.131H188.81V154.503H182.438V148.131ZM182.438 160.875H188.81V167.247H182.438V160.875ZM182.438 167.247H188.81V173.619H182.438V167.247ZM176.066 167.247H182.438V173.619H176.066V167.247ZM176.066 160.875H182.438V167.247H176.066V160.875ZM169.694 160.875H176.066V167.247H169.694V160.875ZM169.694 167.247H176.066V173.619H169.694V167.247ZM163.322 167.247H169.694V173.619H163.322V167.247ZM163.322 160.875H169.694V167.247H163.322V160.875ZM156.95 160.875H163.322V167.247H156.95V160.875ZM150.579 160.875H156.95V167.247H150.579V160.875ZM150.579 167.247H156.95V173.619H150.579V167.247ZM156.95 167.247H163.322V173.619H156.95V167.247ZM150.579 141.759H156.95V148.131H150.579V141.759ZM156.95 141.759H163.322V148.131H156.95V141.759ZM156.95 148.131H163.322V154.503H156.95V148.131ZM156.95 154.503H163.322V160.875H156.95V154.503ZM150.579 148.131H156.95V154.503H150.579V148.131ZM150.579 154.503H156.95V160.875H150.579V154.503ZM150.579 173.619H156.95V179.991H150.579V173.619ZM156.95 173.619H163.322V179.991H156.95V173.619ZM156.95 179.991H163.322V186.363H156.95V179.991ZM156.95 186.363H163.322V192.735H156.95V186.363ZM150.579 186.363H156.95V192.735H150.579V186.363ZM150.579 179.991H156.95V186.363H150.579V179.991ZM188.81 160.875H195.182V167.247H188.81V160.875Z" fill="#8CF483"/>
<mask id="path-4-outside-1_36_2593" maskUnits="userSpaceOnUse" x="108.371" y="20.9148" width="121" height="136" fill="black">
<rect fill="white" x="108.371" y="20.9148" width="121" height="136"/>
<path d="M171.585 39.7185H175.622V59.2312H179.659V69.325H183.696V74.7078H188.406V78.7449H196.481V82.782H208.593V86.8201H225.415V90.8572H208.593V94.8943H196.481V98.9314H188.406V102.969H183.696V108.352H179.659V118.445H175.622V137.959H171.585V152.762H166.875V137.959H162.837V118.445H158.8V108.352H154.763V102.969H149.38V98.9314H141.305V94.8943H129.193V90.8572H112.371V86.8201H129.193V82.782H141.305V78.7449H149.38V74.7078H154.763V69.325H158.8V59.2312H162.837V39.7185H166.875V24.9148H171.585V39.7185Z"/>
</mask>
<path d="M171.585 39.7185H175.622V59.2312H179.659V69.325H183.696V74.7078H188.406V78.7449H196.481V82.782H208.593V86.8201H225.415V90.8572H208.593V94.8943H196.481V98.9314H188.406V102.969H183.696V108.352H179.659V118.445H175.622V137.959H171.585V152.762H166.875V137.959H162.837V118.445H158.8V108.352H154.763V102.969H149.38V98.9314H141.305V94.8943H129.193V90.8572H112.371V86.8201H129.193V82.782H141.305V78.7449H149.38V74.7078H154.763V69.325H158.8V59.2312H162.837V39.7185H166.875V24.9148H171.585V39.7185Z" fill="#8CF483"/>
<path d="M171.585 39.7185H168.221V43.0829H171.585V39.7185ZM175.622 39.7185H178.986V36.3541H175.622V39.7185ZM175.622 59.2312H172.258V62.5956H175.622V59.2312ZM179.659 59.2312H183.024V55.8668H179.659V59.2312ZM179.659 69.325H176.295V72.6894H179.659V69.325ZM183.696 69.325H187.061V65.9605H183.696V69.325ZM183.696 74.7078H180.332V78.0722H183.696V74.7078ZM188.406 74.7078H191.771V71.3434H188.406V74.7078ZM188.406 78.7449H185.042V82.1093H188.406V78.7449ZM196.481 78.7449H199.846V75.3805H196.481V78.7449ZM196.481 82.782H193.117V86.1464H196.481V82.782ZM208.593 82.782H211.957V79.4176H208.593V82.782ZM208.593 86.8201H205.228V90.1845H208.593V86.8201ZM225.415 86.8201H228.779V83.4557H225.415V86.8201ZM225.415 90.8572V94.2216H228.779V90.8572H225.415ZM208.593 90.8572V87.4928H205.228V90.8572H208.593ZM208.593 94.8943V98.2587H211.957V94.8943H208.593ZM196.481 94.8943V91.5299H193.117V94.8943H196.481ZM196.481 98.9314V102.296H199.846V98.9314H196.481ZM188.406 98.9314V95.567H185.042V98.9314H188.406ZM188.406 102.969V106.334H191.771V102.969H188.406ZM183.696 102.969V99.6051H180.332V102.969H183.696ZM183.696 108.352V111.717H187.061V108.352H183.696ZM179.659 108.352V104.988H176.295V108.352H179.659ZM179.659 118.445V121.809H183.024V118.445H179.659ZM175.622 118.445V115.081H172.258V118.445H175.622ZM175.622 137.959V141.323H178.986V137.959H175.622ZM171.585 137.959V134.594H168.221V137.959H171.585ZM171.585 152.762V156.127H174.949V152.762H171.585ZM166.875 152.762H163.511V156.127H166.875V152.762ZM166.875 137.959H170.239V134.594H166.875V137.959ZM162.837 137.959H159.473V141.323H162.837V137.959ZM162.837 118.445H166.201V115.081H162.837V118.445ZM158.8 118.445H155.435V121.809H158.8V118.445ZM158.8 108.352H162.164V104.988H158.8V108.352ZM154.763 108.352H151.398V111.717H154.763V108.352ZM154.763 102.969H158.127V99.6051H154.763V102.969ZM149.38 102.969H146.015V106.334H149.38V102.969ZM149.38 98.9314H152.744V95.567H149.38V98.9314ZM141.305 98.9314H137.94V102.296H141.305V98.9314ZM141.305 94.8943H144.669V91.5299H141.305V94.8943ZM129.193 94.8943H125.829V98.2587H129.193V94.8943ZM129.193 90.8572H132.558V87.4928H129.193V90.8572ZM112.371 90.8572H109.007V94.2216H112.371V90.8572ZM112.371 86.8201V83.4557H109.007V86.8201H112.371ZM129.193 86.8201V90.1845H132.558V86.8201H129.193ZM129.193 82.782V79.4176H125.829V82.782H129.193ZM141.305 82.782V86.1464H144.669V82.782H141.305ZM141.305 78.7449V75.3805H137.94V78.7449H141.305ZM149.38 78.7449V82.1093H152.744V78.7449H149.38ZM149.38 74.7078V71.3434H146.015V74.7078H149.38ZM154.763 74.7078V78.0722H158.127V74.7078H154.763ZM154.763 69.325V65.9605H151.398V69.325H154.763ZM158.8 69.325V72.6894H162.164V69.325H158.8ZM158.8 59.2312V55.8668H155.435V59.2312H158.8ZM162.837 59.2312V62.5956H166.201V59.2312H162.837ZM162.837 39.7185V36.3541H159.473V39.7185H162.837ZM166.875 39.7185V43.0829H170.239V39.7185H166.875ZM166.875 24.9148V21.5504H163.511V24.9148H166.875ZM171.585 24.9148H174.949V21.5504H171.585V24.9148ZM171.585 39.7185V43.0829H175.622V39.7185V36.3541H171.585V39.7185ZM175.622 39.7185H172.258V59.2312H175.622H178.986V39.7185H175.622ZM175.622 59.2312V62.5956H179.659V59.2312V55.8668H175.622V59.2312ZM179.659 59.2312H176.295V69.325H179.659H183.024V59.2312H179.659ZM179.659 69.325V72.6894H183.696V69.325V65.9605H179.659V69.325ZM183.696 69.325H180.332V74.7078H183.696H187.061V69.325H183.696ZM183.696 74.7078V78.0722H188.406V74.7078V71.3434H183.696V74.7078ZM188.406 74.7078H185.042V78.7449H188.406H191.771V74.7078H188.406ZM188.406 78.7449V82.1093H196.481V78.7449V75.3805H188.406V78.7449ZM196.481 78.7449H193.117V82.782H196.481H199.846V78.7449H196.481ZM196.481 82.782V86.1464H208.593V82.782V79.4176H196.481V82.782ZM208.593 82.782H205.228V86.8201H208.593H211.957V82.782H208.593ZM208.593 86.8201V90.1845H225.415V86.8201V83.4557H208.593V86.8201ZM225.415 86.8201H222.051V90.8572H225.415H228.779V86.8201H225.415ZM225.415 90.8572V87.4928H208.593V90.8572V94.2216H225.415V90.8572ZM208.593 90.8572H205.228V94.8943H208.593H211.957V90.8572H208.593ZM208.593 94.8943V91.5299H196.481V94.8943V98.2587H208.593V94.8943ZM196.481 94.8943H193.117V98.9314H196.481H199.846V94.8943H196.481ZM196.481 98.9314V95.567H188.406V98.9314V102.296H196.481V98.9314ZM188.406 98.9314H185.042V102.969H188.406H191.771V98.9314H188.406ZM188.406 102.969V99.6051H183.696V102.969V106.334H188.406V102.969ZM183.696 102.969H180.332V108.352H183.696H187.061V102.969H183.696ZM183.696 108.352V104.988H179.659V108.352V111.717H183.696V108.352ZM179.659 108.352H176.295V118.445H179.659H183.024V108.352H179.659ZM179.659 118.445V115.081H175.622V118.445V121.809H179.659V118.445ZM175.622 118.445H172.258V137.959H175.622H178.986V118.445H175.622ZM175.622 137.959V134.594H171.585V137.959V141.323H175.622V137.959ZM171.585 137.959H168.221V152.762H171.585H174.949V137.959H171.585ZM171.585 152.762V149.398H166.875V152.762V156.127H171.585V152.762ZM166.875 152.762H170.239V137.959H166.875H163.511V152.762H166.875ZM166.875 137.959V134.594H162.837V137.959V141.323H166.875V137.959ZM162.837 137.959H166.201V118.445H162.837H159.473V137.959H162.837ZM162.837 118.445V115.081H158.8V118.445V121.809H162.837V118.445ZM158.8 118.445H162.164V108.352H158.8H155.435V118.445H158.8ZM158.8 108.352V104.988H154.763V108.352V111.717H158.8V108.352ZM154.763 108.352H158.127V102.969H154.763H151.398V108.352H154.763ZM154.763 102.969V99.6051H149.38V102.969V106.334H154.763V102.969ZM149.38 102.969H152.744V98.9314H149.38H146.015V102.969H149.38ZM149.38 98.9314V95.567H141.305V98.9314V102.296H149.38V98.9314ZM141.305 98.9314H144.669V94.8943H141.305H137.94V98.9314H141.305ZM141.305 94.8943V91.5299H129.193V94.8943V98.2587H141.305V94.8943ZM129.193 94.8943H132.558V90.8572H129.193H125.829V94.8943H129.193ZM129.193 90.8572V87.4928H112.371V90.8572V94.2216H129.193V90.8572ZM112.371 90.8572H115.735V86.8201H112.371H109.007V90.8572H112.371ZM112.371 86.8201V90.1845H129.193V86.8201V83.4557H112.371V86.8201ZM129.193 86.8201H132.558V82.782H129.193H125.829V86.8201H129.193ZM129.193 82.782V86.1464H141.305V82.782V79.4176H129.193V82.782ZM141.305 82.782H144.669V78.7449H141.305H137.94V82.782H141.305ZM141.305 78.7449V82.1093H149.38V78.7449V75.3805H141.305V78.7449ZM149.38 78.7449H152.744V74.7078H149.38H146.015V78.7449H149.38ZM149.38 74.7078V78.0722H154.763V74.7078V71.3434H149.38V74.7078ZM154.763 74.7078H158.127V69.325H154.763H151.398V74.7078H154.763ZM154.763 69.325V72.6894H158.8V69.325V65.9605H154.763V69.325ZM158.8 69.325H162.164V59.2312H158.8H155.435V69.325H158.8ZM158.8 59.2312V62.5956H162.837V59.2312V55.8668H158.8V59.2312ZM162.837 59.2312H166.201V39.7185H162.837H159.473V59.2312H162.837ZM162.837 39.7185V43.0829H166.875V39.7185V36.3541H162.837V39.7185ZM166.875 39.7185H170.239V24.9148H166.875H163.511V39.7185H166.875ZM166.875 24.9148V28.2792H171.585V24.9148V21.5504H166.875V24.9148ZM171.585 24.9148H168.221V39.7185H171.585H174.949V24.9148H171.585Z" fill="black" mask="url(#path-4-outside-1_36_2593)"/>
</svg>
