<svg width="67" height="67" viewBox="0 0 67 67" fill="none" xmlns="http://www.w3.org/2000/svg">
<path d="M63.4211 47.5735H53.9107V44.3895H57.0739V41.2263H9.52177V44.3895H12.6954V47.5735H3.17456V66.5944H63.4211V47.5735ZM15.8482 44.3895H50.7266V47.5735H15.8482V44.3895ZM60.2579 63.4312H6.33776V50.7367H60.2579V63.4312Z" fill="white"/>
<path d="M60.2562 3.16699H57.0721V41.2295H60.2562V3.16699Z" fill="white"/>
<path d="M53.9073 53.8992H38.0497V57.0832H53.9073V53.8992Z" fill="white"/>
<path d="M41.2139 22.2063H38.0507V25.3695H41.2139V22.2063Z" fill="white"/>
<path d="M41.2131 15.8555H38.0499V19.0187H41.2131V15.8555Z" fill="white"/>
<path d="M38.0531 25.3711H28.5427V28.5343H38.0531V25.3711Z" fill="white"/>
<path d="M28.5422 22.2063H25.3582V25.3695H28.5422V22.2063Z" fill="white"/>
<path d="M28.5417 15.863H25.3577V19.0262H28.5417V15.863Z" fill="white"/>
<path d="M12.6943 38.0624H53.92V6.34717H12.6943V38.0624ZM15.8471 9.51037H50.7256V34.8784H15.8471V9.51037Z" fill="white"/>
<path d="M19.0328 53.8992H12.6855V60.2464H19.0328V53.8992Z" fill="white"/>
<path d="M57.0749 0.00195312H9.52283V3.16515H57.0749V0.00195312Z" fill="white"/>
<path d="M9.52166 3.16699H6.33765V41.2295H9.52166V3.16699Z" fill="white"/>
</svg>
