<svg width="67" height="67" viewBox="0 0 67 67" fill="none" xmlns="http://www.w3.org/2000/svg">
<path d="M65.0142 4.74951H61.8301V52.3224H65.0142V4.74951Z" fill="white"/>
<path d="M14.2575 52.3169V55.4801H17.4416V58.6641H20.6048V55.4801H26.952V58.6641H30.1152V55.4801H36.4624V58.6641H39.6256V55.4801H45.9728V58.6641H49.1568V55.4801H52.32V58.6641H49.1568V61.8273H42.8096V58.6641H39.6256V61.8273H33.2992V58.6641H30.1152V61.8273H23.7888V58.6641H20.6048V61.8273H14.2575V58.6641H11.0943V61.8273H4.74713V65.0113H52.32V61.8273H55.4832V55.4801H61.8304V52.3169H14.2575Z" fill="white"/>
<path d="M55.4823 26.9521H49.1559V30.1153H55.4823V39.6465H58.6663V11.0945H55.4823V26.9521Z" fill="white"/>
<path d="M49.1564 36.4636H45.9724V39.6476H20.6043V42.8108H55.4828V39.6476H49.1564V36.4636Z" fill="white"/>
<path d="M52.3207 14.2593H45.9734V20.6065H52.3207V14.2593Z" fill="white"/>
<path d="M49.1575 30.1184H45.9734V33.3024H49.1575V30.1184Z" fill="white"/>
<path d="M45.9739 33.2988H42.8107V36.462H45.9739V33.2988Z" fill="white"/>
<path d="M42.8102 30.1184H39.6262V33.3024H42.8102V30.1184Z" fill="white"/>
<path d="M39.6267 26.9536H36.4635V30.1168H39.6267V26.9536Z" fill="white"/>
<path d="M36.4615 23.7888H30.1143V26.952H36.4615V23.7888Z" fill="white"/>
<path d="M30.1147 26.9536H26.9515V30.1168H30.1147V26.9536Z" fill="white"/>
<path d="M26.9499 30.1184H23.7867V33.3024H26.9499V30.1184Z" fill="white"/>
<path d="M55.4828 7.92969H20.6043V11.0929H55.4828V7.92969Z" fill="white"/>
<path d="M23.7887 36.4625V33.2993H20.6047V11.0945H17.4415V39.6465H20.6047V36.4625H23.7887Z" fill="white"/>
<path d="M61.83 1.58447H14.2571V4.74767H61.83V1.58447Z" fill="white"/>
<path d="M11.0949 55.4817H7.9317V58.6657H11.0949V55.4817Z" fill="white"/>
<path d="M7.93157 55.4856V52.3224H4.74755V45.9752H7.93157V42.812H4.74755V36.4648H7.93157V33.3016H4.74755V26.9543H7.93157V23.7912H4.74755V17.4439H7.93157V14.2599H11.0948V17.4439H7.93157V20.6071H11.0948V26.9543H7.93157V30.1176H11.0948V36.4648H7.93157V39.6488H11.0948V45.9752H7.93157V49.1592H11.0948V52.3224H14.258V4.74951H11.0948V11.0967H4.74755V14.2599H1.58435V61.8328H4.74755V55.4856H7.93157Z" fill="white"/>
</svg>
