<svg width="67" height="67" viewBox="0 0 67 67" fill="none" xmlns="http://www.w3.org/2000/svg">
<path d="M63.4304 15.8676H3.18389V6.35718H-0.00012207V60.2565H3.18389V19.0308H63.4304V60.2565H66.5936V6.35718H63.4304V15.8676Z" fill="white"/>
<path d="M63.4317 60.2542H3.18521V63.4174H63.4317V60.2542Z" fill="white"/>
<path d="M57.0839 41.2302H53.9207V50.7406H57.0839V41.2302Z" fill="white"/>
<path d="M53.9202 50.7463H50.7362V53.9095H53.9202V50.7463Z" fill="white"/>
<path d="M53.9202 38.0498H50.7362V41.2338H53.9202V38.0498Z" fill="white"/>
<path d="M50.7362 53.9033H41.2257V57.0873H50.7362V53.9033Z" fill="white"/>
<path d="M50.7373 38.0475V34.8843H47.5741V22.2107H9.5116V41.2315H15.8588V38.0475H12.6956V25.3739H44.4109V34.8843H41.2269V38.0475H50.7373Z" fill="white"/>
<path d="M41.2262 50.7461H38.063V53.9093H41.2262V50.7461Z" fill="white"/>
<path d="M41.2262 38.05H38.063V41.2341H41.2262V38.05Z" fill="white"/>
<path d="M38.065 41.2302H34.881V50.7406H38.065V41.2302Z" fill="white"/>
<path d="M22.2058 9.51587H19.0218V12.6791H22.2058V9.51587Z" fill="white"/>
<path d="M12.6959 44.3974V47.5814H9.51184V50.7446H31.7167V41.2342H28.5535V38.0502H25.3695V34.887H22.2063V38.0502H19.0223V41.2342H15.8591V44.3974H12.6959Z" fill="white"/>
<path d="M15.8595 9.51587H12.6963V12.6791H15.8595V9.51587Z" fill="white"/>
<path d="M9.51229 9.51587H6.34909V12.6791H9.51229V9.51587Z" fill="white"/>
<path d="M63.4313 3.17065H3.18484V6.35467H63.4313V3.17065Z" fill="white"/>
</svg>
